<?xml version="1.0" encoding="UTF-8" standalone="no"?>
<svg
   xmlns:dc="http://purl.org/dc/elements/1.1/"
   xmlns:cc="http://creativecommons.org/ns#"
   xmlns:rdf="http://www.w3.org/1999/02/22-rdf-syntax-ns#"
   xmlns:svg="http://www.w3.org/2000/svg"
   xmlns="http://www.w3.org/2000/svg"
   xmlns:sodipodi="http://sodipodi.sourceforge.net/DTD/sodipodi-0.dtd"
   xmlns:inkscape="http://www.inkscape.org/namespaces/inkscape"
   version="1.1"
   width="512"
   height="512"
   viewBox="0 0 512 512"
   id="svg8"
   sodipodi:docname="radio.svg"
   inkscape:version="1.0.1 (3bc2e813f5, 2020-09-07)">
  <metadata
     id="metadata14">
    <rdf:RDF>
      <cc:Work
         rdf:about="">
        <dc:format>image/svg+xml</dc:format>
        <dc:type
           rdf:resource="http://purl.org/dc/dcmitype/StillImage" />
        <dc:title></dc:title>
      </cc:Work>
    </rdf:RDF>
  </metadata>
  <defs
     id="defs12" />
  <sodipodi:namedview
     pagecolor="#474747"
     bordercolor="#666666"
     borderopacity="1"
     objecttolerance="10"
     gridtolerance="10"
     guidetolerance="10"
     inkscape:pageopacity="0"
     inkscape:pageshadow="2"
     inkscape:window-width="1920"
     inkscape:window-height="1009"
     id="namedview10"
     showgrid="false"
     inkscape:zoom="0.71777344"
     inkscape:cx="256"
     inkscape:cy="256"
     inkscape:window-x="-8"
     inkscape:window-y="-8"
     inkscape:window-maximized="1"
     inkscape:current-layer="svg8"
     inkscape:document-rotation="0" />
  <g
     id="g2" />
  <g
     id="g857"
     style="fill:#29d637;fill-opacity:1"
     transform="translate(0.005,-0.0015)">
    <path
       d="m 80.947,155.28 h 350.126 c 24.555,0 44.401,19.876 44.401,44.431 v 201.697 c 0,24.043 -19.845,44.442 -44.401,44.442 H 80.947 c -24.546,0 -44.431,-20.398 -44.431,-44.442 V 199.7 c 0,-24.546 19.886,-44.421 44.431,-44.421 v 0 z m -1.556,53.319 c -6.277,0 -11.489,5.212 -11.489,12.022 v 0 c 0,6.267 5.212,11.489 11.489,11.489 h 172.974 c 6.789,0 12.022,-5.222 12.022,-11.489 v 0 c 0,-6.81 -5.233,-12.022 -12.022,-12.022 z m 0,40.233 c -6.277,0 -11.489,5.222 -11.489,11.49 v 0 c 0,6.8 5.212,12.042 11.489,12.042 h 172.974 c 6.789,0 12.022,-5.243 12.022,-12.042 v 0 c 0,-6.267 -5.233,-11.489 -12.022,-11.489 H 79.391 Z m 0,39.731 c -6.277,0 -11.489,5.223 -11.489,12.002 v 0 c 0,6.277 5.212,11.5 11.489,11.5 h 172.974 c 6.789,0 12.022,-5.223 12.022,-11.5 v 0 c 0,-6.779 -5.233,-12.002 -12.022,-12.002 z m 0,40.233 c -6.277,0 -11.489,5.223 -11.489,11.479 v 0 c 0,6.779 5.212,12.002 11.489,12.002 h 172.974 c 6.789,0 12.022,-5.223 12.022,-12.002 v 0 c 0,-6.257 -5.233,-11.479 -12.022,-11.479 z m 0,39.721 c -6.277,0 -11.489,5.202 -11.489,12.002 v 0 c 0,6.277 5.212,11.5 11.489,11.5 h 172.974 c 6.789,0 12.022,-5.223 12.022,-11.5 v 0 c 0,-6.8 -5.233,-12.002 -12.022,-12.002 z M 371.507,220.089 c -44.411,0 -80.466,36.065 -80.466,80.476 0,44.421 36.055,80.476 80.466,80.476 44.401,0 80.476,-36.055 80.476,-80.476 0.01,-44.411 -36.075,-80.476 -80.476,-80.476 z m 0,15.687 c -35.553,0 -64.788,28.723 -64.788,64.788 0,35.543 29.235,64.798 64.788,64.798 35.533,0 64.809,-29.255 64.809,-64.798 0,-36.065 -29.276,-64.788 -64.809,-64.788 z"
       fill="#000000"
       id="path4"
       style="fill:#29d637;fill-opacity:1" />
    <path
       d="m 440.94,177.034 -286.69,-92.511 5.928,-18.37 286.69,92.511 z"
       fill="#000000"
       id="path6"
       style="fill:#29d637;fill-opacity:1" />
  </g>
</svg>
