<?xml version="1.0" encoding="UTF-8" standalone="no"?>
<svg
   xmlns:dc="http://purl.org/dc/elements/1.1/"
   xmlns:cc="http://creativecommons.org/ns#"
   xmlns:rdf="http://www.w3.org/1999/02/22-rdf-syntax-ns#"
   xmlns:svg="http://www.w3.org/2000/svg"
   xmlns="http://www.w3.org/2000/svg"
   xmlns:sodipodi="http://sodipodi.sourceforge.net/DTD/sodipodi-0.dtd"
   xmlns:inkscape="http://www.inkscape.org/namespaces/inkscape"
   id="Layer_1"
   viewBox="0 0 30.816 30.816"
   width="214"
   height="214"
   version="1.1"
   sodipodi:docname="pintlogo.svg"
   inkscape:version="1.0.1 (3bc2e813f5, 2020-09-07)">
  <metadata
     id="metadata13">
    <rdf:RDF>
      <cc:Work
         rdf:about="">
        <dc:format>image/svg+xml</dc:format>
        <dc:type
           rdf:resource="http://purl.org/dc/dcmitype/StillImage" />
        <dc:title />
      </cc:Work>
    </rdf:RDF>
  </metadata>
  <defs
     id="defs11" />
  <sodipodi:namedview
     pagecolor="#8f8f8f"
     bordercolor="#666666"
     borderopacity="1"
     objecttolerance="10"
     gridtolerance="10"
     guidetolerance="10"
     inkscape:pageopacity="0"
     inkscape:pageshadow="2"
     inkscape:window-width="1920"
     inkscape:window-height="1017"
     id="namedview9"
     showgrid="false"
     inkscape:zoom="2.352"
     inkscape:cx="109.87947"
     inkscape:cy="89.17496"
     inkscape:window-x="-8"
     inkscape:window-y="-8"
     inkscape:window-maximized="1"
     inkscape:current-layer="Layer_1"
     inkscape:document-rotation="0" />
  <style
     id="style2">.st0{fill:#ca2127}.st1{fill:#fff}</style>
  <path
     class="st0"
     d="m 30.816001,15.408001 c 0,8.508239 -6.899761,15.408 -15.408,15.408 C 6.8997607,30.816001 1.4e-8,23.91624 1.4e-8,15.408001 1.4e-8,6.8997606 6.8997607,0 15.408001,0 c 8.508239,0 15.408,6.8997606 15.408,15.408001 z"
     id="path4"
     style="stroke-width:0.087895;fill:#ff434a;fill-opacity:1" />
  <path
     class="st1"
     d="m 14.397953,6.0102377 c -3.340696,0.354082 -6.6678646,2.8927826 -6.8031156,6.5271333 -0.087913,2.218025 0.8520803,3.88154 3.0972426,4.349196 0.256977,-1.048884 0.304315,-1.616754 0.304315,-1.616754 0,0 -0.98733,-0.935308 -1.0887685,-1.5299 -0.82503,-4.7834457 5.8631225,-8.0503534 9.3728805,-4.7099577 2.42099,2.3182347 0.82503,9.4466387 -3.083718,8.7050717 -3.746448,-0.708164 1.832648,-6.380156 -1.156395,-7.49585 -2.427752,-0.9085867 -3.719397,2.77253 -2.569765,4.596387 -0.676255,3.139972 -2.1302,6.099563 -1.541859,10.034549 1.913799,-1.302755 2.556239,-3.801371 3.083718,-6.40688 0.96028,0.547824 1.474235,1.122374 2.698254,1.209225 4.517377,0.327357 7.039805,-4.242305 6.424413,-8.464563 C 22.580627,7.4666504 18.617779,5.5626246 14.397953,6.0102377 Z"
     id="path6"
     style="stroke-width:0.0672155" />
</svg>
