<?xml version="1.0" encoding="UTF-8" standalone="no"?>
<svg
   xmlns:dc="http://purl.org/dc/elements/1.1/"
   xmlns:cc="http://creativecommons.org/ns#"
   xmlns:rdf="http://www.w3.org/1999/02/22-rdf-syntax-ns#"
   xmlns:svg="http://www.w3.org/2000/svg"
   xmlns="http://www.w3.org/2000/svg"
   xmlns:sodipodi="http://sodipodi.sourceforge.net/DTD/sodipodi-0.dtd"
   xmlns:inkscape="http://www.inkscape.org/namespaces/inkscape"
   height="235.452"
   width="261.728"
   viewBox="0 0 245.371 220.736"
   version="1.1"
   id="svg4"
   sodipodi:docname="itchio-textless-black.svg"
   inkscape:version="1.0.1 (3bc2e813f5, 2020-09-07)">
  <metadata
     id="metadata10">
    <rdf:RDF>
      <cc:Work
         rdf:about="">
        <dc:format>image/svg+xml</dc:format>
        <dc:type
           rdf:resource="http://purl.org/dc/dcmitype/StillImage" />
      </cc:Work>
    </rdf:RDF>
  </metadata>
  <defs
     id="defs8" />
  <sodipodi:namedview
     pagecolor="#ffffff"
     bordercolor="#666666"
     borderopacity="1"
     objecttolerance="10"
     gridtolerance="10"
     guidetolerance="10"
     inkscape:pageopacity="0"
     inkscape:pageshadow="2"
     inkscape:window-width="1920"
     inkscape:window-height="1017"
     id="namedview6"
     showgrid="false"
     inkscape:zoom="3.1216554"
     inkscape:cx="130.864"
     inkscape:cy="117.726"
     inkscape:window-x="-8"
     inkscape:window-y="-8"
     inkscape:window-maximized="1"
     inkscape:current-layer="svg4" />
  <path
     d="M 31.99,1.365 C 21.287,7.7199999 0.2,31.944999 0,38.297999 v 10.516 c 0,13.330001 12.46,25.046 23.773,25.046 13.584,0 24.902,-11.258 24.903,-24.619998 0,13.361998 10.93,24.619998 24.515,24.619998 13.586,0 24.165,-11.258 24.165,-24.619998 0,13.361998 11.622,24.619998 25.207,24.619998 h 0.246 c 13.586,0 25.208,-11.258 25.208,-24.619998 0,13.361998 10.58,24.619998 24.164,24.619998 13.585,0 24.515,-11.258 24.515,-24.619998 0,13.361998 11.32,24.619998 24.903,24.619998 11.313,0 23.773,-11.713998 23.773,-25.046 v -10.516 C 245.172,31.944001 224.085,7.718 213.384,1.365 180.118,0.197 157.056,-0.005 122.685,0 88.315,0.003 41.457,0.53999999 31.988,1.365 Z m 65.194,66.216999 a 28.025,28.024999 0 0 1 -4.78,6.155002 c -5.128,5.013999 -12.157,8.122 -19.906,8.122 a 28.482,28.482 0 0 1 -19.948,-8.126 c -1.858,-1.82 -3.27,-3.766 -4.563,-6.032001 l -0.006,0.004 c -1.292,2.270001 -3.092,4.215001 -4.954,6.037 a 28.5,28.5 0 0 1 -19.948,8.12 c -0.934,0 -1.906,-0.258 -2.692,-0.528001 C 19.295,92.706001 18.834,103.574 18.671,111.498 l -0.002,0.045 c -0.02,4.024 -0.04,7.333 -0.06,11.93 0.21,23.86 -2.363,77.334 10.52,90.473 19.964,4.655 56.7,6.775 93.555,6.788 h 0.006 c 36.854,-0.013 73.59,-2.133 93.554,-6.788 12.883,-13.14 10.31,-66.614 10.52,-90.474 -0.022,-4.596 -0.04,-7.905 -0.06,-11.93 l -0.003,-0.045 c -0.162,-7.926 -0.623,-18.793 -1.715,-30.165 -0.786,0.270001 -1.757,0.528001 -2.692,0.528001 a 28.5,28.5 0 0 1 -19.948,-8.12 c -1.862,-1.822002 -3.662,-3.766 -4.955,-6.037 l -0.006,-0.004 c -1.294,2.265998 -2.705,4.212999 -4.563,6.031998 a 28.48,28.480001 0 0 1 -19.947,8.125002 c -7.748,0 -14.778,-3.11 -19.906,-8.123 a 28.025,28.024999 0 0 1 -4.78,-6.155 27.99,27.989999 0 0 1 -4.736,6.155 28.49,28.490001 0 0 1 -19.95,8.123998 c -0.27,0 -0.54,-0.012 -0.81,-0.02 h -0.007 c -0.27,0.008 -0.54,0.02 -0.813,0.02 a 28.49,28.490001 0 0 1 -19.95,-8.123 A 27.992,27.992001 0 0 1 97.187,67.579 Z m -20.486,26.49 -0.002,0.01 h 0.015 c 8.113,0.017 15.32,0 24.25,9.746001 7.028,-0.737 14.372,-1.105 21.722,-1.094 h 0.006 c 7.35,-0.01 14.694,0.357 21.723,1.094 8.93,-9.747001 16.137,-9.730002 24.25,-9.746001 h 0.014 l -0.002,-0.01 c 3.833,0 19.166,0 29.85,30.007001 L 210,165.244 c 8.504,30.624 -2.723,31.373 -16.727,31.4 -20.768,-0.773 -32.267,-15.855 -32.267,-30.935 -11.496,1.884 -24.907,2.826 -38.318,2.827 h -0.006 c -13.412,0 -26.823,-0.943 -38.318,-2.827 0,15.08 -11.5,30.162 -32.267,30.935 -14.004,-0.027 -25.23,-0.775 -16.726,-31.4 L 46.85,124.08 C 57.534,94.073 72.867,94.073 76.7,94.073 Z M 122.683,117.654 v 0.006 c -0.02,0.02 -21.863,20.08 -25.79,27.215 l 14.304,-0.573 v 12.474 c 0,0.584 5.74,0.346 11.486,0.08 h 0.006 c 5.744,0.266 11.485,0.504 11.485,-0.08 v -12.474 l 14.304,0.573 c -3.928,-7.135 -25.79,-27.215 -25.79,-27.215 v -0.006 l -0.003,0.002 z"
     color="#000000"
     id="path2"
     style="fill:#fa5c5c;fill-opacity:1;stroke-width:1" />
</svg>
