<?xml version="1.0" encoding="UTF-8" standalone="no"?>
<svg
   xmlns:dc="http://purl.org/dc/elements/1.1/"
   xmlns:cc="http://creativecommons.org/ns#"
   xmlns:rdf="http://www.w3.org/1999/02/22-rdf-syntax-ns#"
   xmlns:svg="http://www.w3.org/2000/svg"
   xmlns="http://www.w3.org/2000/svg"
   xmlns:sodipodi="http://sodipodi.sourceforge.net/DTD/sodipodi-0.dtd"
   xmlns:inkscape="http://www.inkscape.org/namespaces/inkscape"
   height="261"
   width="261"
   viewBox="0 0 244.68819 244.68736"
   version="1.1"
   id="svg4"
   sodipodi:docname="itchio-textless-white.svg"
   inkscape:version="1.0.1 (3bc2e813f5, 2020-09-07)">
  <metadata
     id="metadata10">
    <rdf:RDF>
      <cc:Work
         rdf:about="">
        <dc:format>image/svg+xml</dc:format>
        <dc:type
           rdf:resource="http://purl.org/dc/dcmitype/StillImage" />
        <dc:title></dc:title>
      </cc:Work>
    </rdf:RDF>
  </metadata>
  <defs
     id="defs8" />
  <sodipodi:namedview
     pagecolor="#404040"
     bordercolor="#666666"
     borderopacity="1"
     objecttolerance="10"
     gridtolerance="10"
     guidetolerance="10"
     inkscape:pageopacity="0"
     inkscape:pageshadow="2"
     inkscape:window-width="1920"
     inkscape:window-height="1017"
     id="namedview6"
     showgrid="false"
     inkscape:zoom="2.2073437"
     inkscape:cx="130.864"
     inkscape:cy="104.91228"
     inkscape:window-x="-8"
     inkscape:window-y="-8"
     inkscape:window-maximized="1"
     inkscape:current-layer="svg4" />
  <circle
     style="fill:#fa5c5c;fill-opacity:1;fill-rule:evenodd;stroke-width:191.859;stroke-linecap:round;stroke-linejoin:round"
     id="path835"
     cx="122.34409"
     cy="122.34368"
     r="122.34409" />
  <path
     d="M 65.67761,54.239471 C 58.99042,58.210049 45.81535,73.345729 45.690391,77.315057 v 6.570352 c 0,8.328531 7.784956,15.648644 14.853271,15.648644 8.487227,0 15.558667,-7.033958 15.559291,-15.382485 0,8.348527 6.829019,15.382485 15.316871,15.382485 8.488476,0 15.098186,-7.033958 15.098186,-15.382485 0,8.348527 7.26139,15.382485 15.74924,15.382485 h 0.1537 c 8.48848,0 15.74985,-7.033958 15.74985,-15.382485 0,8.348527 6.61033,15.382485 15.09756,15.382485 8.48785,0 15.31688,-7.033958 15.31688,-15.382485 0,8.348527 7.07269,15.382485 15.55929,15.382485 7.06831,0 14.85327,-7.318861 14.85327,-15.648644 v -6.570352 c -0.12497,-3.969953 -13.30004,-19.106258 -19.98598,-23.075586 -20.78445,-0.729761 -35.19349,-0.85597 -56.66835,-0.852846 -21.47423,0.0018 -50.750917,0.33739 -56.667109,0.852846 z m 40.73294,41.372102 a 17.509903,17.509903 0 0 1 -2.98653,3.84562 c -3.20395,3.132727 -7.595637,5.074587 -12.43718,5.074587 A 17.795435,17.795435 0 0 1 78.523413,99.454703 c -1.160871,-1.13713 -2.043082,-2.35299 -2.850944,-3.76878 l -0.0038,0.003 c -0.807237,1.41829 -1.931869,2.63352 -3.095239,3.7719 a 17.806681,17.806681 0 0 1 -12.463427,5.073337 c -0.583559,0 -1.190861,-0.1612 -1.68195,-0.32989 -0.682278,7.10518 -0.970309,13.89546 -1.07215,18.84634 l -0.0013,0.0281 c -0.01249,2.51417 -0.02499,4.58162 -0.03749,7.45381 0.131208,14.90763 -1.476392,48.31796 6.572853,56.52716 12.473424,2.90842 35.425924,4.23299 58.452784,4.24111 h 0.004 c 23.02622,-0.008 45.97872,-1.33269 58.45214,-4.24111 8.04924,-8.20982 6.44165,-41.62016 6.57285,-56.52778 -0.0137,-2.87157 -0.0249,-4.93902 -0.0375,-7.45382 l -0.002,-0.0281 c -0.10122,-4.95213 -0.38924,-11.74179 -1.07152,-18.84697 -0.4911,0.1687 -1.09777,0.3299 -1.68196,0.3299 a 17.806681,17.806681 0 0 1 -12.46342,-5.073337 c -1.16338,-1.13838 -2.288,-2.35299 -3.09587,-3.7719 l -0.004,-0.003 c -0.80849,1.41579 -1.69007,2.63227 -2.85094,3.76877 a 17.794186,17.794186 0 0 1 -12.46281,5.076467 c -4.84091,0 -9.23323,-1.94312 -12.43718,-5.075217 a 17.509903,17.509903 0 0 1 -2.98653,-3.84562 17.488036,17.488036 0 0 1 -2.95903,3.84562 17.800434,17.800434 0 0 1 -12.46467,5.075827 c -0.1687,0 -0.3374,-0.007 -0.50609,-0.0125 h -0.005 c -0.1687,0.005 -0.33739,0.0125 -0.50796,0.0125 a 17.800434,17.800434 0 0 1 -12.46468,-5.075207 17.489285,17.489285 0 0 1 -2.95904,-3.84562 z m -12.799567,16.550837 -0.0013,0.006 h 0.0094 c 5.068969,0.0106 9.571867,0 15.151307,6.08926 4.39106,-0.46047 8.97956,-0.6904 13.57182,-0.68353 h 0.004 c 4.59225,-0.006 9.18075,0.22306 13.57244,0.68353 5.57943,-6.08989 10.08233,-6.07926 15.1513,-6.08926 h 0.009 l -9.2e-4,-0.006 c 2.39485,0 11.97485,0 18.65016,18.74826 l 7.17016,25.71971 c 5.31326,19.13375 -1.70132,19.60173 -10.45096,19.6186 -12.97576,-0.48297 -20.16029,-9.90614 -20.16029,-19.32806 -7.18265,1.17711 -15.56179,1.76567 -23.94092,1.7663 h -0.004 c -8.37976,0 -16.7589,-0.58919 -23.940933,-1.7663 0,9.42192 -7.185152,18.84509 -20.160286,19.32806 -8.749642,-0.0169 -15.7636,-0.48422 -10.450336,-19.6186 l 7.172032,-25.71909 c 6.675318,-18.74825 16.255313,-18.74825 18.650155,-18.74825 z m 28.731237,14.73394 v 0.004 c -0.0125,0.0125 -13.65991,12.5459 -16.11348,17.00382 l 8.93708,-0.35801 v 7.7937 c 0,0.36488 3.58632,0.21619 7.1764,0.05 h 0.004 c 3.58882,0.1662 7.17578,0.31489 7.17578,-0.05 v -7.7937 l 8.93708,0.35801 c -2.45423,-4.45786 -16.11352,-17.00376 -16.11352,-17.00376 v -0.004 l -0.002,9.2e-4 z"
     color="#000000"
     fill="#ffffff"
     id="path2"
     style="stroke-width:0.624796" />
</svg>
