<?xml version="1.0" encoding="UTF-8" standalone="no"?>
<svg
   xmlns:dc="http://purl.org/dc/elements/1.1/"
   xmlns:cc="http://creativecommons.org/ns#"
   xmlns:rdf="http://www.w3.org/1999/02/22-rdf-syntax-ns#"
   xmlns:svg="http://www.w3.org/2000/svg"
   xmlns="http://www.w3.org/2000/svg"
   xmlns:sodipodi="http://sodipodi.sourceforge.net/DTD/sodipodi-0.dtd"
   xmlns:inkscape="http://www.inkscape.org/namespaces/inkscape"
   height="24px"
   viewBox="0 0 24 24"
   width="24px"
   fill="#000000"
   version="1.1"
   id="svg6"
   sodipodi:docname="contactaricon.svg"
   inkscape:version="1.0.1 (3bc2e813f5, 2020-09-07)">
  <metadata
     id="metadata12">
    <rdf:RDF>
      <cc:Work
         rdf:about="">
        <dc:format>image/svg+xml</dc:format>
        <dc:type
           rdf:resource="http://purl.org/dc/dcmitype/StillImage" />
      </cc:Work>
    </rdf:RDF>
  </metadata>
  <defs
     id="defs10" />
  <sodipodi:namedview
     pagecolor="#ffffff"
     bordercolor="#666666"
     borderopacity="1"
     objecttolerance="10"
     gridtolerance="10"
     guidetolerance="10"
     inkscape:pageopacity="0"
     inkscape:pageshadow="2"
     inkscape:window-width="1920"
     inkscape:window-height="1017"
     id="namedview8"
     showgrid="false"
     inkscape:zoom="21.655145"
     inkscape:cx="13.385251"
     inkscape:cy="12.409275"
     inkscape:window-x="-8"
     inkscape:window-y="-8"
     inkscape:window-maximized="1"
     inkscape:current-layer="svg6" />
  <path
     d="m 8.5684693,12.000001 c 2.2099997,0 3.9999997,-1.79 3.9999997,-4.0000005 0,-2.21 -1.79,-4.0000001 -3.9999997,-4.0000001 -2.2100002,0 -4.0000002,1.7900001 -4.0000002,4.0000001 0,2.2100005 1.79,4.0000005 4.0000002,4.0000005 z m 0,1.999999 c -2.6700002,0 -8.0000002,1.34 -8.0000002,4 v 2 H 16.568469 v -2 c 0,-2.66 -5.33,-4 -7.9999997,-4 z"
     id="path4-1"
     style="fill:#29d637;fill-opacity:0.25735295" />
  <path
     d="m 12,12.000001 c 2.21,0 4,-1.79 4,-4.0000008 0,-2.21 -1.79,-4 -4,-4 -2.2100002,0 -4.0000001,1.79 -4.0000001,4 0,2.2100008 1.7899999,4.0000008 4.0000001,4.0000008 z M 12,14 c -2.6699997,0 -8,1.34 -8,4 v 2 h 16 v -2 c 0,-2.66 -5.33,-4 -8,-4 z"
     id="path4"
     style="fill:#29d637;fill-opacity:1" />
</svg>
