<?xml version="1.0" encoding="UTF-8" standalone="no"?>
<svg
   xmlns:dc="http://purl.org/dc/elements/1.1/"
   xmlns:cc="http://creativecommons.org/ns#"
   xmlns:rdf="http://www.w3.org/1999/02/22-rdf-syntax-ns#"
   xmlns:svg="http://www.w3.org/2000/svg"
   xmlns="http://www.w3.org/2000/svg"
   xmlns:sodipodi="http://sodipodi.sourceforge.net/DTD/sodipodi-0.dtd"
   xmlns:inkscape="http://www.inkscape.org/namespaces/inkscape"
   id="Layer_1"
   viewBox="0 0 245 245"
   version="1.1"
   sodipodi:docname="Discord-Logo-White.svg"
   width="245"
   height="245"
   inkscape:version="1.0.1 (3bc2e813f5, 2020-09-07)">
  <metadata
     id="metadata13">
    <rdf:RDF>
      <cc:Work
         rdf:about="">
        <dc:format>image/svg+xml</dc:format>
        <dc:type
           rdf:resource="http://purl.org/dc/dcmitype/StillImage" />
        <dc:title></dc:title>
      </cc:Work>
    </rdf:RDF>
  </metadata>
  <defs
     id="defs11">
    <clipPath
       clipPathUnits="userSpaceOnUse"
       id="clipPath852">
      <rect
         style="fill:#7289da;fill-opacity:1;fill-rule:evenodd;stroke-width:95.3764;stroke-linecap:round;stroke-linejoin:round"
         id="rect854"
         width="218.77551"
         height="222.04082"
         x="13.387755"
         y="12.408163" />
    </clipPath>
  </defs>
  <sodipodi:namedview
     pagecolor="#575757"
     bordercolor="#666666"
     borderopacity="1"
     objecttolerance="10"
     gridtolerance="10"
     guidetolerance="10"
     inkscape:pageopacity="0"
     inkscape:pageshadow="2"
     inkscape:window-width="1920"
     inkscape:window-height="1017"
     id="namedview9"
     showgrid="false"
     inkscape:zoom="2.1655145"
     inkscape:cx="122.5"
     inkscape:cy="120"
     inkscape:window-x="-8"
     inkscape:window-y="-8"
     inkscape:window-maximized="1"
     inkscape:current-layer="Layer_1" />
  <style
     id="style2">.st0{fill:#FFFFFF;}</style>
  <circle
     style="fill:#819cff;fill-opacity:1;fill-rule:evenodd;stroke-width:102.336;stroke-linecap:round;stroke-linejoin:round"
     id="path858"
     cx="122.5"
     cy="122.5"
     r="122.5" />
  <path
     style="fill:#ffffff;fill-opacity:1;fill-rule:evenodd;stroke-width:57.9467;stroke-linecap:round;stroke-linejoin:round"
     d="m 76.278933,176.44954 c -10.107301,-2.0425 -18.33754,-6.39228 -25.408551,-13.42876 l -5.055341,-5.03064 0.397874,-6.56637 c 1.346292,-22.21868 7.036513,-44.95586 16.170648,-64.615242 2.218704,-4.775312 2.905868,-5.690396 5.62916,-7.496336 9.811051,-6.506134 19.844951,-10.259051 30.897756,-11.556489 4.505521,-0.528882 3.636611,0.980114 -1.518904,2.637791 -6.44559,2.072493 -14.306372,5.59626 -19.879721,8.911529 -5.124125,3.048048 -9.386048,6.263069 -8.920141,6.728979 0.150461,0.150459 1.982343,-0.589029 4.070847,-1.643302 8.367202,-4.223749 19.258675,-7.764468 28.83005,-9.372378 24.00768,-4.033096 46.13326,-1.242741 66.82802,8.427972 6.45271,3.015367 6.64017,3.082177 6.07295,2.164403 -1.51822,-2.456532 -17.555,-11.28298 -25.8152,-14.208372 -2.50618,-0.887576 -4.94698,-1.752561 -5.42401,-1.922189 -0.75138,-0.26719 -0.75138,-0.424119 0,-1.174 0.70546,-0.704045 1.66102,-0.75431 5.12022,-0.269339 7.01935,0.984091 12.99574,2.864892 20.04944,6.309657 11.43925,5.586515 12.27839,6.507929 17.54032,19.260282 7.36555,17.850424 12.12595,38.624224 12.94254,56.479524 l 0.37807,8.26666 -4.19064,4.21585 c -4.90954,4.93905 -9.42473,8.02564 -15.55845,10.63578 -4.74887,2.02081 -13.83126,4.1375 -17.79499,4.14717 -2.3132,0.005 -2.62558,-0.23535 -6.48659,-5.00437 l -4.05635,-5.01031 2.97227,-1.01915 c 5.92111,-2.03023 11.76136,-5.61818 16.34587,-10.04207 2.49713,-2.40962 4.39258,-4.52875 4.21213,-4.70921 -0.18045,-0.18044 -2.49292,0.90678 -5.13881,2.41606 -7.75427,4.42319 -20.56924,9.07187 -29.23076,10.60354 -15.98615,2.82693 -32.04027,1.52961 -47.972145,-3.8766 -7.409288,-2.5142 -12.034351,-4.56374 -16.714645,-7.40686 -1.989395,-1.2085 -3.794661,-2.01969 -4.011695,-1.80266 -0.217034,0.21703 1.69171,2.40783 4.241675,4.86844 3.393603,3.27469 6.073727,5.19288 9.999271,7.15659 2.949654,1.47552 6.023124,2.85464 6.829924,3.0647 1.08768,0.2832 1.31009,0.58622 0.86026,1.17213 -0.33366,0.43461 -2.18653,2.77237 -4.117478,5.195 -3.47724,4.36268 -3.537748,4.40426 -6.328285,4.34771 -1.549603,-0.0315 -4.594565,-0.41622 -6.766589,-0.85512 z M 102.87912,144.8266 c 2.98669,-1.24571 6.09042,-4.25654 7.48393,-7.25992 1.60938,-3.46862 1.55374,-10.03099 -0.1142,-13.47661 -4.13822,-8.54843 -14.906425,-10.58539 -21.436732,-4.05507 -3.040975,3.04098 -4.257502,6.14177 -4.256173,10.84855 0.0013,6.58626 3.375618,12.06318 8.75283,14.20921 2.29532,0.91605 7.053185,0.78373 9.570405,-0.26616 z m 49.15664,-0.5969 c 4.86034,-2.42201 7.47867,-6.92421 7.47867,-12.85955 0,-5.07375 -1.12101,-8.0206 -4.2361,-11.1357 -5.30721,-5.30721 -12.34482,-5.60251 -17.723,-0.74364 -3.67805,3.3229 -5.00315,6.33887 -5.00548,11.39274 -0.005,11.34409 9.89551,18.12525 19.48591,13.34615 z"
     id="path856" />
</svg>
